<?xml version="1.0" encoding="UTF-8" standalone="no"?>
<!-- Created with Inkscape (http://www.inkscape.org/) -->

<svg
   xmlns:dc="http://purl.org/dc/elements/1.1/"
   xmlns:cc="http://creativecommons.org/ns#"
   xmlns:rdf="http://www.w3.org/1999/02/22-rdf-syntax-ns#"
   xmlns:svg="http://www.w3.org/2000/svg"
   xmlns="http://www.w3.org/2000/svg"
   xmlns:sodipodi="http://sodipodi.sourceforge.net/DTD/sodipodi-0.dtd"
   xmlns:inkscape="http://www.inkscape.org/namespaces/inkscape"
   version="1.1"
   id="svg7689"
   xml:space="preserve"
   width="866.66669"
   height="666.66669"
   viewBox="0 0 866.66669 666.66669"
   sodipodi:docname="utPLSQL- logo.svg"
   inkscape:version="0.92.4 (5da689c313, 2019-01-14)"
   inkscape:export-filename="C:\Users\jacek\IdeaProjects\utPLSQL-logo\utPLSQL-logo-black.png"
   inkscape:export-xdpi="1000"
   inkscape:export-ydpi="1000"><metadata
     id="metadata7695"><rdf:RDF><cc:Work
         rdf:about=""><dc:format>image/svg+xml</dc:format><dc:type
           rdf:resource="http://purl.org/dc/dcmitype/StillImage" /><dc:title></dc:title></cc:Work></rdf:RDF></metadata><defs
     id="defs7693"><linearGradient
       x1="0"
       y1="0"
       x2="1"
       y2="0"
       gradientUnits="userSpaceOnUse"
       gradientTransform="matrix(21.44681,-173.87235,-173.87235,-21.44681,256.36035,278.5444)"
       spreadMethod="pad"
       id="linearGradient7715"><stop
         style="stop-opacity:1;stop-color:#bdbcbc"
         offset="0"
         id="stop7711" /><stop
         style="stop-opacity:1;stop-color:#7b7979"
         offset="1"
         id="stop7713" /></linearGradient><linearGradient
       x1="0"
       y1="0"
       x2="1"
       y2="0"
       gradientUnits="userSpaceOnUse"
       gradientTransform="matrix(21.44681,-173.87235,-173.87235,-21.44681,469.13519,304.78976)"
       spreadMethod="pad"
       id="linearGradient7735"><stop
         style="stop-opacity:1;stop-color:#bdbcbc"
         offset="0"
         id="stop7731" /><stop
         style="stop-opacity:1;stop-color:#7b7979"
         offset="1"
         id="stop7733" /></linearGradient><linearGradient
       x1="0"
       y1="0"
       x2="1"
       y2="0"
       gradientUnits="userSpaceOnUse"
       gradientTransform="matrix(41.361702,-64.340424,-64.340424,-41.361702,156.97917,274.30057)"
       spreadMethod="pad"
       id="linearGradient7755"><stop
         style="stop-opacity:1;stop-color:#50ade5"
         offset="0"
         id="stop7751" /><stop
         style="stop-opacity:1;stop-color:#3871c1"
         offset="1"
         id="stop7753" /></linearGradient><linearGradient
       x1="0"
       y1="0"
       x2="1"
       y2="0"
       gradientUnits="userSpaceOnUse"
       gradientTransform="matrix(21.44681,-173.87235,-173.87235,-21.44681,432.99246,300.33163)"
       spreadMethod="pad"
       id="linearGradient7775"><stop
         style="stop-opacity:1;stop-color:#bdbcbc"
         offset="0"
         id="stop7771" /><stop
         style="stop-opacity:1;stop-color:#7b7979"
         offset="1"
         id="stop7773" /></linearGradient><linearGradient
       x1="0"
       y1="0"
       x2="1"
       y2="0"
       gradientUnits="userSpaceOnUse"
       gradientTransform="matrix(21.44681,-173.87235,-173.87235,-21.44681,415.84668,298.21674)"
       spreadMethod="pad"
       id="linearGradient7795"><stop
         style="stop-opacity:1;stop-color:#bdbcbc"
         offset="0"
         id="stop7791" /><stop
         style="stop-opacity:1;stop-color:#7b7979"
         offset="1"
         id="stop7793" /></linearGradient><linearGradient
       x1="0"
       y1="0"
       x2="1"
       y2="0"
       gradientUnits="userSpaceOnUse"
       gradientTransform="matrix(19.396479,-157.25003,-157.25003,-19.396479,308.69528,284.82117)"
       spreadMethod="pad"
       id="linearGradient7815"><stop
         style="stop-opacity:1;stop-color:#bdbcbc"
         offset="0"
         id="stop7811" /><stop
         style="stop-opacity:1;stop-color:#7b7979"
         offset="1"
         id="stop7813" /></linearGradient><linearGradient
       x1="0"
       y1="0"
       x2="1"
       y2="0"
       gradientUnits="userSpaceOnUse"
       gradientTransform="matrix(18.603836,-150.82396,-150.82396,-18.603836,361.47321,283.89688)"
       spreadMethod="pad"
       id="linearGradient7835"><stop
         style="stop-opacity:1;stop-color:#bdbcbc"
         offset="0"
         id="stop7831" /><stop
         style="stop-opacity:1;stop-color:#7b7979"
         offset="1"
         id="stop7833" /></linearGradient><linearGradient
       x1="0"
       y1="0"
       x2="1"
       y2="0"
       gradientUnits="userSpaceOnUse"
       gradientTransform="matrix(11.525778,-17.928987,-17.928987,-11.525778,195.68388,276.72113)"
       spreadMethod="pad"
       id="linearGradient7855"><stop
         style="stop-opacity:1;stop-color:#50ade5"
         offset="0"
         id="stop7851" /><stop
         style="stop-opacity:1;stop-color:#3871c1"
         offset="1"
         id="stop7853" /></linearGradient><linearGradient
       x1="0"
       y1="0"
       x2="1"
       y2="0"
       gradientUnits="userSpaceOnUse"
       gradientTransform="matrix(44.634953,-69.432152,-69.432152,-44.634953,195.1731,293.31479)"
       spreadMethod="pad"
       id="linearGradient7875"><stop
         style="stop-opacity:1;stop-color:#50ade5"
         offset="0"
         id="stop7871" /><stop
         style="stop-opacity:1;stop-color:#3871c1"
         offset="1"
         id="stop7873" /></linearGradient><linearGradient
       x1="0"
       y1="0"
       x2="1"
       y2="0"
       gradientUnits="userSpaceOnUse"
       gradientTransform="matrix(13.31984,-151.09694,-151.09694,-13.31984,153.87727,166.69757)"
       spreadMethod="pad"
       id="linearGradient7895"><stop
         style="stop-opacity:1;stop-color:#bdbcbc"
         offset="0"
         id="stop7891" /><stop
         style="stop-opacity:1;stop-color:#7b7979"
         offset="1"
         id="stop7893" /></linearGradient><linearGradient
       x1="0"
       y1="0"
       x2="1"
       y2="0"
       gradientUnits="userSpaceOnUse"
       gradientTransform="matrix(13.31984,-151.09694,-151.09694,-13.31984,173.00919,168.38412)"
       spreadMethod="pad"
       id="linearGradient7915"><stop
         style="stop-opacity:1;stop-color:#bdbcbc"
         offset="0"
         id="stop7911" /><stop
         style="stop-opacity:1;stop-color:#7b7979"
         offset="1"
         id="stop7913" /></linearGradient><linearGradient
       x1="0"
       y1="0"
       x2="1"
       y2="0"
       gradientUnits="userSpaceOnUse"
       gradientTransform="matrix(13.31984,-151.09694,-151.09694,-13.31984,191.76981,170.03796)"
       spreadMethod="pad"
       id="linearGradient7935"><stop
         style="stop-opacity:1;stop-color:#bdbcbc"
         offset="0"
         id="stop7931" /><stop
         style="stop-opacity:1;stop-color:#7b7979"
         offset="1"
         id="stop7933" /></linearGradient><linearGradient
       x1="0"
       y1="0"
       x2="1"
       y2="0"
       gradientUnits="userSpaceOnUse"
       gradientTransform="matrix(13.31984,-151.09694,-151.09694,-13.31984,211.35875,171.7648)"
       spreadMethod="pad"
       id="linearGradient7955"><stop
         style="stop-opacity:1;stop-color:#bdbcbc"
         offset="0"
         id="stop7951" /><stop
         style="stop-opacity:1;stop-color:#7b7979"
         offset="1"
         id="stop7953" /></linearGradient><linearGradient
       x1="0"
       y1="0"
       x2="1"
       y2="0"
       gradientUnits="userSpaceOnUse"
       gradientTransform="matrix(13.31984,-151.09694,-151.09694,-13.31984,240.30911,174.31691)"
       spreadMethod="pad"
       id="linearGradient7975"><stop
         style="stop-opacity:1;stop-color:#bdbcbc"
         offset="0"
         id="stop7971" /><stop
         style="stop-opacity:1;stop-color:#7b7979"
         offset="1"
         id="stop7973" /></linearGradient><linearGradient
       x1="0"
       y1="0"
       x2="1"
       y2="0"
       gradientUnits="userSpaceOnUse"
       gradientTransform="matrix(13.31984,-151.09694,-151.09694,-13.31984,260.46481,176.09372)"
       spreadMethod="pad"
       id="linearGradient7995"><stop
         style="stop-opacity:1;stop-color:#bdbcbc"
         offset="0"
         id="stop7991" /><stop
         style="stop-opacity:1;stop-color:#7b7979"
         offset="1"
         id="stop7993" /></linearGradient><linearGradient
       x1="0"
       y1="0"
       x2="1"
       y2="0"
       gradientUnits="userSpaceOnUse"
       gradientTransform="matrix(13.31984,-151.09694,-151.09694,-13.31984,281.81448,177.97578)"
       spreadMethod="pad"
       id="linearGradient8015"><stop
         style="stop-opacity:1;stop-color:#bdbcbc"
         offset="0"
         id="stop8011" /><stop
         style="stop-opacity:1;stop-color:#7b7979"
         offset="1"
         id="stop8013" /></linearGradient><linearGradient
       x1="0"
       y1="0"
       x2="1"
       y2="0"
       gradientUnits="userSpaceOnUse"
       gradientTransform="matrix(13.31984,-151.09694,-151.09694,-13.31984,301.7695,179.73491)"
       spreadMethod="pad"
       id="linearGradient8035"><stop
         style="stop-opacity:1;stop-color:#bdbcbc"
         offset="0"
         id="stop8031" /><stop
         style="stop-opacity:1;stop-color:#7b7979"
         offset="1"
         id="stop8033" /></linearGradient><linearGradient
       x1="0"
       y1="0"
       x2="1"
       y2="0"
       gradientUnits="userSpaceOnUse"
       gradientTransform="matrix(13.31984,-151.09694,-151.09694,-13.31984,330.48618,182.2664)"
       spreadMethod="pad"
       id="linearGradient8055"><stop
         style="stop-opacity:1;stop-color:#bdbcbc"
         offset="0"
         id="stop8051" /><stop
         style="stop-opacity:1;stop-color:#7b7979"
         offset="1"
         id="stop8053" /></linearGradient><linearGradient
       x1="0"
       y1="0"
       x2="1"
       y2="0"
       gradientUnits="userSpaceOnUse"
       gradientTransform="matrix(13.31984,-151.09694,-151.09694,-13.31984,348.73199,183.87485)"
       spreadMethod="pad"
       id="linearGradient8075"><stop
         style="stop-opacity:1;stop-color:#bdbcbc"
         offset="0"
         id="stop8071" /><stop
         style="stop-opacity:1;stop-color:#7b7979"
         offset="1"
         id="stop8073" /></linearGradient><linearGradient
       x1="0"
       y1="0"
       x2="1"
       y2="0"
       gradientUnits="userSpaceOnUse"
       gradientTransform="matrix(13.31984,-151.09694,-151.09694,-13.31984,367.37045,185.51791)"
       spreadMethod="pad"
       id="linearGradient8095"><stop
         style="stop-opacity:1;stop-color:#bdbcbc"
         offset="0"
         id="stop8091" /><stop
         style="stop-opacity:1;stop-color:#7b7979"
         offset="1"
         id="stop8093" /></linearGradient><linearGradient
       x1="0"
       y1="0"
       x2="1"
       y2="0"
       gradientUnits="userSpaceOnUse"
       gradientTransform="matrix(13.31984,-151.09694,-151.09694,-13.31984,385.94192,187.15506)"
       spreadMethod="pad"
       id="linearGradient8115"><stop
         style="stop-opacity:1;stop-color:#bdbcbc"
         offset="0"
         id="stop8111" /><stop
         style="stop-opacity:1;stop-color:#7b7979"
         offset="1"
         id="stop8113" /></linearGradient><linearGradient
       x1="0"
       y1="0"
       x2="1"
       y2="0"
       gradientUnits="userSpaceOnUse"
       gradientTransform="matrix(13.31984,-151.09694,-151.09694,-13.31984,406.17307,188.93852)"
       spreadMethod="pad"
       id="linearGradient8135"><stop
         style="stop-opacity:1;stop-color:#bdbcbc"
         offset="0"
         id="stop8131" /><stop
         style="stop-opacity:1;stop-color:#7b7979"
         offset="1"
         id="stop8133" /></linearGradient><linearGradient
       x1="0"
       y1="0"
       x2="1"
       y2="0"
       gradientUnits="userSpaceOnUse"
       gradientTransform="matrix(13.31984,-151.09694,-151.09694,-13.31984,426.01068,190.68729)"
       spreadMethod="pad"
       id="linearGradient8155"><stop
         style="stop-opacity:1;stop-color:#bdbcbc"
         offset="0"
         id="stop8151" /><stop
         style="stop-opacity:1;stop-color:#7b7979"
         offset="1"
         id="stop8153" /></linearGradient></defs><sodipodi:namedview
     pagecolor="#ffffff"
     bordercolor="#666666"
     borderopacity="1"
     objecttolerance="10"
     gridtolerance="10"
     guidetolerance="10"
     inkscape:pageopacity="0"
     inkscape:pageshadow="2"
     inkscape:window-width="1920"
     inkscape:window-height="1001"
     id="namedview7691"
     showgrid="false"
     inkscape:zoom="2.0025263"
     inkscape:cx="463.67446"
     inkscape:cy="342.48793"
     inkscape:window-x="-9"
     inkscape:window-y="-9"
     inkscape:window-maximized="1"
     inkscape:current-layer="g7697" /><g
     id="g7697"
     inkscape:groupmode="layer"
     inkscape:label="utPLSQL-test-your-plsql"
     transform="matrix(1.3333333,0,0,-1.3333333,0,666.66667)"><rect
       style="opacity:1;vector-effect:none;fill:#000000;fill-opacity:1;stroke:none;stroke-width:3.58206224;stroke-linecap:butt;stroke-linejoin:miter;stroke-miterlimit:4;stroke-dasharray:none;stroke-dashoffset:0;stroke-opacity:1"
       id="rect7687"
       width="490.46613"
       height="264.83054"
       x="83.274284"
       y="-382.63925"
       ry="0"
       transform="scale(1,-1)"
       inkscape:export-filename="C:\Users\jacek\IdeaProjects\utPLSQL-logo\utPLSQL-logo-transparent.png"
       inkscape:export-xdpi="1000"
       inkscape:export-ydpi="1000" /><g
       id="g7699"><g
         id="g7701"><g
           id="g7707"><g
             id="g7709"><path
               d="m 233.13,281.088 v -45.012 h 10.031 v 12.87 h 26.005 c 3.299,0 6.027,0.208 8.183,0.628 v 0 c 2.156,0.417 3.883,1.154 5.182,2.21 v 0 c 1.297,1.056 2.21,2.464 2.738,4.224 v 0 c 0.529,1.759 0.792,3.982 0.792,6.666 v 0 3.894 c 0,2.64 -0.275,4.884 -0.825,6.731 v 0 c -0.551,1.849 -1.485,3.356 -2.805,4.522 v 0 c -1.32,1.165 -3.058,2.002 -5.214,2.508 v 0 c -2.156,0.506 -4.84,0.759 -8.051,0.759 v 0 z m 10.031,-8.645 h 25.74 c 2.684,0 4.542,-0.441 5.577,-1.321 v 0 c 1.034,-0.881 1.551,-2.531 1.551,-4.95 v 0 -3.102 c 0,-2.376 -0.506,-3.972 -1.518,-4.785 v 0 c -1.013,-0.814 -2.838,-1.221 -5.478,-1.221 v 0 h -25.872 z"
               style="fill:url(#linearGradient7715);stroke:none"
               id="path7717"
               inkscape:connector-curvature="0" /></g></g></g></g><g
       id="g7719"><g
         id="g7721"><g
           id="g7727"><g
             id="g7729"><path
               d="M 453.896,281.088 V 251.52 c 0,-2.861 0.275,-5.27 0.825,-7.227 v 0 c 0.549,-1.958 1.485,-3.542 2.806,-4.752 v 0 c 1.32,-1.211 3.079,-2.09 5.28,-2.639 v 0 c 2.199,-0.551 4.949,-0.826 8.249,-0.826 v 0 h 27.588 v 8.58 h -26.73 c -1.584,0 -2.893,0.132 -3.927,0.396 v 0 c -1.034,0.265 -1.859,0.693 -2.475,1.287 v 0 c -0.616,0.595 -1.045,1.342 -1.287,2.244 v 0 c -0.243,0.901 -0.362,2.013 -0.362,3.333 v 0 29.172 z"
               style="fill:url(#linearGradient7735);stroke:none"
               id="path7737"
               inkscape:connector-curvature="0" /></g></g></g></g><g
       id="g7739"><g
         id="g7741"><g
           id="g7747"><g
             id="g7749"><path
               d="m 180.567,271.849 v -20.065 c 0,-1.541 -0.122,-2.783 -0.363,-3.73 v 0 c -0.242,-0.945 -0.659,-1.682 -1.253,-2.21 v 0 c -0.594,-0.527 -1.42,-0.891 -2.476,-1.089 v 0 c -1.056,-0.197 -2.376,-0.297 -3.96,-0.297 v 0 H 162.22 c -1.497,0 -2.763,0.1 -3.796,0.297 v 0 c -1.034,0.198 -1.859,0.562 -2.475,1.089 v 0 c -0.616,0.528 -1.067,1.265 -1.352,2.21 v 0 c -0.288,0.947 -0.43,2.189 -0.43,3.73 v 0 20.065 h -9.9 V 251.52 c 0,-2.861 0.275,-5.27 0.826,-7.227 v 0 c 0.55,-1.958 1.484,-3.542 2.805,-4.752 v 0 c 1.319,-1.211 3.079,-2.09 5.279,-2.639 v 0 c 2.2,-0.551 4.95,-0.826 8.251,-0.826 v 0 h 11.616 c 3.342,0 6.126,0.275 8.348,0.826 v 0 c 2.221,0.549 3.994,1.428 5.313,2.639 v 0 c 1.32,1.21 2.255,2.794 2.805,4.752 v 0 c 0.55,1.957 0.826,4.366 0.826,7.227 v 0 20.329 z"
               style="fill:url(#linearGradient7755);stroke:none"
               id="path7757"
               inkscape:connector-curvature="0" /></g></g></g></g><g
       id="g7759"><g
         id="g7761"><g
           id="g7767"><g
             id="g7769"><path
               d="m 437.88,235.204 c -1.414,-0.354 -3.01,-0.598 -4.81,-0.74 v 0 l 4.378,-4.69 h 12.295 l -6.985,7.524 c -1.369,-0.922 -3,-1.626 -4.878,-2.094"
               style="fill:url(#linearGradient7775);stroke:none"
               id="path7777"
               inkscape:connector-curvature="0" /></g></g></g></g><g
       id="g7779"><g
         id="g7781"><g
           id="g7787"><g
             id="g7789"><path
               d="m 412.203,280.921 c -1.612,0 -3.085,-0.066 -4.429,-0.194 v 0 c -1.348,-0.135 -2.563,-0.336 -3.64,-0.605 v 0 c -2.17,-0.545 -3.903,-1.407 -5.203,-2.603 v 0 c -1.302,-1.191 -2.223,-2.763 -2.765,-4.716 v 0 c -0.543,-1.948 -0.812,-4.314 -0.812,-7.087 v 0 -13.919 c 0,-2.816 0.269,-5.193 0.812,-7.119 v 0 c 0.542,-1.932 1.463,-3.492 2.765,-4.684 v 0 c 1.3,-1.191 3.033,-2.058 5.203,-2.598 v 0 c 2.167,-0.546 4.876,-0.815 8.129,-0.815 v 0 h 16.844 c 3.294,0 6.025,0.269 8.195,0.815 v 0 c 2.168,0.54 3.9,1.407 5.203,2.598 v 0 c 1.298,1.192 2.219,2.752 2.763,4.684 v 0 c 0.542,1.926 0.813,4.303 0.813,7.119 v 0 13.919 c 0,2.773 -0.271,5.139 -0.813,7.087 v 0 c -0.544,1.953 -1.465,3.525 -2.763,4.716 v 0 c -1.303,1.196 -3.035,2.058 -5.203,2.603 v 0 c -1.085,0.27 -2.309,0.473 -3.674,0.608 v 0 c -1.337,0.126 -2.798,0.191 -4.398,0.191 v 0 z m -7.165,-10.809 c 0.011,2.133 7.014,3.861 15.653,3.861 v 0 c 8.645,0 15.653,-1.731 15.653,-3.866 v 0 c 0,-0.006 -0.002,-0.012 -0.002,-0.018 v 0 c -2.921,-1.165 -8.815,-1.962 -15.625,-1.962 v 0 c -6.855,0 -12.778,0.808 -15.679,1.985 m -0.001,-8.01 v 2.979 c 0,0.725 0.028,1.383 0.08,1.98 v 0 c 3.696,-1.116 9.31,-1.827 15.6,-1.827 v 0 c 6.279,0 11.885,0.709 15.581,1.82 v 0 c 0.065,-0.594 0.098,-1.251 0.098,-1.973 v 0 -2.979 c -2.9,-1.178 -8.825,-1.987 -15.679,-1.987 v 0 c -6.856,0 -12.779,0.809 -15.68,1.987 m 31.359,-3.026 v -0.004 -4.963 c -2.9,-1.177 -8.825,-1.986 -15.679,-1.986 v 0 c -6.856,0 -12.779,0.809 -15.68,1.986 v 0 4.835 0.132 c 3.694,-1.131 9.342,-1.854 15.68,-1.854 v 0 c 6.337,0 11.984,0.723 15.679,1.854 m 0,-7.993 v -3.67 c 0,-2.139 -7.02,-3.873 -15.679,-3.873 v 0 c -8.66,0 -15.68,1.734 -15.68,3.873 v 0 c 0,0.043 0.01,0.085 0.016,0.127 v 0 l -0.016,0.001 v 3.542 c 3.694,-1.13 9.342,-1.853 15.68,-1.853 v 0 c 6.337,0 11.984,0.723 15.679,1.853"
               style="fill:url(#linearGradient7795);stroke:none"
               id="path7797"
               inkscape:connector-curvature="0" /></g></g></g></g><g
       id="g7799"><g
         id="g7801"><g
           id="g7807"><g
             id="g7809"><path
               d="M 292.132,281.088 V 251.52 c 0,-2.861 0.274,-5.27 0.825,-7.227 v 0 c 0.55,-1.958 1.485,-3.542 2.805,-4.752 v 0 c 1.321,-1.211 3.079,-2.09 5.281,-2.639 v 0 c 2.199,-0.551 4.95,-0.826 8.249,-0.826 v 0 h 25.311 v 8.58 h -24.452 c -1.584,0 -2.895,0.132 -3.928,0.396 v 0 c -1.034,0.265 -1.858,0.693 -2.475,1.287 v 0 c -0.616,0.595 -1.046,1.342 -1.287,2.244 v 0 c -0.242,0.901 -0.363,2.013 -0.363,3.333 v 0 29.172 z"
               style="fill:url(#linearGradient7815);stroke:none"
               id="path7817"
               inkscape:connector-curvature="0" /></g></g></g></g><g
       id="g7819"><g
         id="g7821"><g
           id="g7827"><g
             id="g7829"><path
               d="m 353.578,281.088 c -2.244,0 -4.181,-0.23 -5.808,-0.692 v 0 c -1.627,-0.463 -2.948,-1.189 -3.959,-2.179 v 0 c -1.015,-0.989 -1.762,-2.299 -2.245,-3.927 v 0 c -0.484,-1.628 -0.726,-3.587 -0.726,-5.874 v 0 -2.244 c 0,-1.936 0.187,-3.62 0.561,-5.049 v 0 c 0.373,-1.431 1.044,-2.618 2.013,-3.564 v 0 c 0.966,-0.947 2.278,-1.649 3.927,-2.112 v 0 c 1.65,-0.462 3.729,-0.693 6.237,-0.693 v 0 h 21.45 c 1.759,0 3.037,-0.297 3.828,-0.891 v 0 c 0.793,-0.593 1.189,-1.596 1.189,-3.002 v 0 -2.443 c 0,-1.54 -0.396,-2.563 -1.189,-3.068 v 0 c -0.791,-0.507 -2.091,-0.761 -3.894,-0.761 v 0 h -34.669 v -8.513 h 35.197 c 2.508,0 4.631,0.22 6.369,0.66 v 0 c 1.738,0.44 3.157,1.122 4.257,2.047 v 0 c 1.099,0.923 1.892,2.121 2.376,3.596 v 0 c 0.484,1.473 0.727,3.268 0.727,5.378 v 0 3.565 c 0,2.024 -0.243,3.762 -0.727,5.214 v 0 c -0.484,1.453 -1.277,2.64 -2.376,3.565 v 0 c -1.1,0.923 -2.519,1.593 -4.257,2.012 v 0 c -1.738,0.418 -3.861,0.628 -6.369,0.628 v 0 h -21.055 c -1.628,0 -2.771,0.296 -3.431,0.89 v 0 c -0.66,0.595 -0.99,1.594 -0.99,3.003 v 0 1.452 c 0,1.803 0.363,3.003 1.089,3.598 v 0 c 0.461,0.377 1.107,0.621 1.898,0.759 v 0 h 35.897 v 8.645 z"
               style="fill:url(#linearGradient7835);stroke:none"
               id="path7837"
               inkscape:connector-curvature="0" /></g></g></g></g><g
       id="g7839"><g
         id="g7841"><g
           id="g7847"><g
             id="g7849"><path
               d="m 195.74,263.862 h 11.286 v 7.987 H 195.74 Z"
               style="fill:url(#linearGradient7855);stroke:none"
               id="path7857"
               inkscape:connector-curvature="0" /></g></g></g></g><g
       id="g7859"><g
         id="g7861"><g
           id="g7867"><g
             id="g7869"><path
               d="m 207.059,281.947 v -10.098 h -9.635 -1.684 v -7.987 h 1.684 9.635 v -5.777 -4.123 -2.442 c 0,-2.861 0.275,-5.27 0.826,-7.227 v 0 c 0.55,-1.958 1.485,-3.542 2.805,-4.752 v 0 c 1.319,-1.211 3.079,-2.09 5.279,-2.639 v 0 c 2.2,-0.551 4.951,-0.826 8.251,-0.826 v 0 h 3.302 v 8.58 h -2.445 c -1.584,0 -2.893,0.132 -3.926,0.396 v 0 c -1.034,0.265 -1.86,0.693 -2.475,1.287 v 0 c -0.617,0.595 -1.046,1.342 -1.287,2.244 v 0 c -0.242,0.901 -0.363,2.013 -0.363,3.333 v 0 l 0.066,11.946 h 11.286 v 7.987 h -11.286 v 10.098 z"
               style="fill:url(#linearGradient7875);stroke:none"
               id="path7877"
               inkscape:connector-curvature="0" /></g></g></g></g></g></svg>